<svg width="271" height="31" viewBox="0 0 271 31" fill="none" xmlns="http://www.w3.org/2000/svg">
<path d="M157.013 6.59867C156.977 10.2381 154.003 13.1695 150.35 13.1695C150.315 13.1695 150.277 13.1687 150.243 13.1687C150.212 13.1684 150.178 13.169 150.146 13.169C146.491 13.169 143.516 10.2391 143.474 6.59867C143.51 2.95516 146.488 0.0192984 150.146 0.0192984C150.178 0.0192984 150.212 0.0199065 150.243 0.0199065C150.274 0.0199065 150.308 0.0192984 150.34 0.0192984C153.999 0.0192984 156.977 2.95516 157.013 6.59912L157.013 6.59867Z" fill="#1B9DD9"/>
<path d="M157.012 24.4199C156.977 28.0641 153.999 31 150.34 31C150.308 31 150.274 30.9992 150.243 30.9992C150.212 30.9992 150.178 31 150.146 31C146.488 31 143.51 28.0641 143.474 24.4202C143.51 20.7762 146.488 17.8404 150.146 17.8404C150.178 17.8404 150.212 17.8411 150.243 17.8411C150.274 17.8411 150.308 17.8404 150.34 17.8404C153.999 17.8404 156.977 20.7762 157.013 24.4202L157.012 24.4199Z" fill="#E6352B"/>
<path d="M179.874 0.982937H167.079V30.1028H175.357V21.7801H179.448C186.875 21.7801 192.281 18.1584 192.281 11.2997C192.281 4.76858 187.426 0.982937 179.874 0.982937ZM179.274 15.4322H175.406V7.72592H179.274C182.263 7.72592 184.051 9.05514 184.051 11.5789C184.051 14.1027 182.214 15.461 179.313 15.461L179.274 15.4322ZM63.836 22.8396H47.7922V18.2159H62.1145V11.8487H47.7922V7.42748H63.6039V0.559262H39.6111V29.679L63.836 29.6787V22.8396ZM17.2526 13.3996H15.9568L11.4696 0.68449H0V29.7751H8.45224V14.1703H9.36135L14.4769 28.4846H18.6839L23.7994 14.1703H24.7084V29.7562L33.1608 29.7559V0.68449H21.7399L17.2526 13.3996ZM204.012 0.963741L191.304 30.1316H200.008L202.145 24.9588H213.653L215.829 30.1316H224.697L211.99 0.982937L204.012 0.963741ZM204.563 18.6976L207.532 11.4537H208.325L211.226 18.6976H204.563ZM86.6395 18.5917H89.8983L93.1863 18.6688C92.8997 19.33 92.4959 19.9383 91.9973 20.4604C91.2005 21.3182 90.2426 22.0193 89.183 22.5225L89.1827 22.5218C87.995 23.0627 86.7005 23.3443 85.3937 23.3443C85.3104 23.3443 85.2235 23.3431 85.1412 23.3409C85.0374 23.3443 84.9296 23.3472 84.8251 23.3472C80.5212 23.3472 77.0307 19.8702 77.0307 15.5833C77.0307 15.4817 77.0325 15.3787 77.0365 15.2782C77.0365 10.7412 80.3634 7.20612 84.6668 7.20612C84.6887 7.20566 84.7147 7.20566 84.7365 7.20566C87.377 7.20566 89.9249 8.18509 91.8808 9.95079L96.716 4.24832C93.519 1.51021 89.4336 0 85.2151 0C85.0147 0 84.808 0.00441714 84.6097 0.010511C75.3548 0.010511 68.5371 6.66682 68.5371 15.1534C68.5371 24.0542 75.4806 30.2961 84.7838 30.2961C84.8324 30.2961 84.885 30.2961 84.9347 30.2961C89.593 30.2961 94.1139 28.7073 97.7404 25.7977V12.6973L86.6395 12.6962V18.5917ZM114.171 0.578457L101.464 29.7172H110.168L112.305 24.5541L123.813 24.5544L125.989 29.7177L134.828 29.7172L122.121 0.597501L114.171 0.578457ZM114.723 18.3025L117.624 11.1645L118.514 11.165L121.415 18.303L114.723 18.3025ZM262.683 0.963741V30.0835H271V0.963741H262.683ZM255.411 10.9819C255.419 10.826 255.423 10.6665 255.423 10.5093C255.423 8.1045 254.469 5.79311 252.771 4.08531C250.769 2.15859 247.616 0.964046 243.1 0.964046L228.981 0.963741V30.0835H237.259V21.2599H240.886L246.891 30.0835H256.446L249.27 19.95C252.953 18.6452 255.415 15.1689 255.415 11.2745C255.415 11.1846 255.412 11.09 255.41 11.0011L255.411 10.9819ZM242.665 14.9407H237.211V7.94728H242.626C245.392 7.94728 247.104 9.11273 247.104 11.4055C247.104 13.6985 245.479 14.9601 242.665 14.9601V14.9407Z" fill="white"/>
</svg>
