<svg width="28" height="28" viewBox="0 0 28 28" fill="none" xmlns="http://www.w3.org/2000/svg">
<path d="M22.9317 13.3809C23.013 13.4622 23.0776 13.5587 23.1216 13.6649C23.1656 13.7712 23.1883 13.885 23.1883 14C23.1883 14.115 23.1656 14.2289 23.1216 14.3351C23.0776 14.4413 23.013 14.5378 22.9317 14.6191L13.9574 23.5878C12.8086 24.7365 11.2504 25.3818 9.6258 25.3817C8.00116 25.3816 6.44311 24.7361 5.29439 23.5873C4.14567 22.4384 3.50039 20.8803 3.50049 19.2556C3.50059 17.631 4.14607 16.0729 5.29494 14.9242L16.1515 3.90797C16.9717 3.0869 18.0845 2.62528 19.245 2.62466C20.4056 2.62405 21.5189 3.08449 22.3399 3.90469C23.161 4.72489 23.6226 5.83767 23.6232 6.99823C23.6239 8.15879 23.1634 9.27206 22.3432 10.0931L11.4845 21.1094C10.9913 21.6025 10.3225 21.8796 9.62509 21.8796C8.92769 21.8796 8.25886 21.6025 7.76572 21.1094C7.27258 20.6162 6.99554 19.9474 6.99554 19.25C6.99554 18.5526 7.27258 17.8838 7.76572 17.3906L16.8767 8.13532C16.9565 8.05018 17.0525 7.98186 17.1591 7.93439C17.2657 7.88692 17.3807 7.86126 17.4974 7.85891C17.6141 7.85656 17.7301 7.87758 17.8385 7.92072C17.9469 7.96386 18.0456 8.02825 18.1288 8.11011C18.212 8.19197 18.2779 8.28964 18.3228 8.39737C18.3677 8.50511 18.3905 8.62072 18.39 8.73742C18.3895 8.85412 18.3657 8.96954 18.3199 9.07689C18.2742 9.18424 18.2074 9.28135 18.1235 9.3625L9.0115 18.6277C8.92992 18.7086 8.86507 18.8048 8.82067 18.9108C8.77627 19.0168 8.75318 19.1305 8.75273 19.2454C8.75227 19.3603 8.77445 19.4742 8.81801 19.5806C8.86156 19.6869 8.92564 19.7837 9.00658 19.8652C9.08752 19.9468 9.18373 20.0117 9.28973 20.0561C9.39572 20.1005 9.50943 20.1236 9.62435 20.124C9.73927 20.1245 9.85315 20.1023 9.9595 20.0587C10.0658 20.0152 10.1626 19.9511 10.2442 19.8702L21.1018 8.85938C21.5949 8.36726 21.8724 7.69939 21.8731 7.00271C21.8738 6.30603 21.5978 5.63759 21.1056 5.14446C20.6135 4.65132 19.9457 4.37388 19.249 4.37316C18.5523 4.37244 17.8839 4.64851 17.3907 5.14063L6.53634 16.1525C6.12972 16.5585 5.80704 17.0406 5.58673 17.5713C5.36641 18.1019 5.25279 18.6708 5.25233 19.2454C5.25187 19.82 5.36459 20.3891 5.58406 20.9201C5.80353 21.4512 6.12544 21.9338 6.53142 22.3404C6.9374 22.747 7.4195 23.0697 7.95018 23.29C8.48087 23.5103 9.04975 23.624 9.62435 23.6244C10.1989 23.6249 10.768 23.5121 11.299 23.2927C11.8301 23.0732 12.3127 22.7513 12.7193 22.3453L21.6946 13.3766C21.8593 13.2132 22.0821 13.1219 22.314 13.1227C22.546 13.1235 22.7682 13.2164 22.9317 13.3809Z" fill="#A7A7A7"/>
</svg>
